<?xml version="1.0" encoding="UTF-8" standalone="no"?>
<!DOCTYPE svg PUBLIC "-//W3C//DTD SVG 1.1//EN"
 "http://www.w3.org/Graphics/SVG/1.1/DTD/svg11.dtd">
<!-- Generated by graphviz version 13.1.2 (20250808.2320)
 -->
<!-- Title: G Pages: 1 -->
<svg width="898pt" height="1454pt"
 viewBox="0.00 0.00 898.00 1454.00" xmlns="http://www.w3.org/2000/svg" xmlns:xlink="http://www.w3.org/1999/xlink">
<g id="graph0" class="graph" transform="scale(1 1) rotate(0) translate(4 1449.74)">
<title>G</title><style>.edge>path:hover{stroke-width:8}</style>
<polygon fill="white" stroke="none" points="-4,4 -4,-1449.74 894.1,-1449.74 894.1,4 -4,4"/>
<!-- _includes -->
<g id="node1" class="node">
<title>_includes</title><style>.edge>path:hover{stroke-width:8}</style>
<polygon fill="blue" stroke="black" points="541.23,-557.93 483.98,-557.93 483.98,-521.93 541.23,-521.93 541.23,-557.93"/>
<text xml:space="preserve" text-anchor="middle" x="512.6" y="-536.43" font-family="Helvetica,sans-Serif" font-size="10.00" fill="white">_includes</text>
</g>
<!-- _includes_app -->
<g id="node2" class="node">
<title>_includes_app</title><style>.edge>path:hover{stroke-width:8}</style>
<ellipse fill="#f31616" stroke="black" cx="570.6" cy="-683.93" rx="45.7" ry="18"/>
<text xml:space="preserve" text-anchor="middle" x="570.6" y="-680.43" font-family="Helvetica,sans-Serif" font-size="10.00" fill="#ffffff">_includes.app</text>
</g>
<!-- _includes_config -->
<g id="node19" class="node">
<title>_includes_config</title><style>.edge>path:hover{stroke-width:8}</style>
<polygon fill="blue" stroke="black" points="541.73,-629.93 481.48,-629.93 481.48,-593.93 541.73,-593.93 541.73,-629.93"/>
<text xml:space="preserve" text-anchor="middle" x="511.6" y="-614.43" font-family="Helvetica,sans-Serif" font-size="10.00" fill="white">_includes.</text>
<text xml:space="preserve" text-anchor="middle" x="511.6" y="-602.43" font-family="Helvetica,sans-Serif" font-size="10.00" fill="white">config</text>
</g>
<!-- _includes_app&#45;&gt;_includes_config -->
<g id="edge1" class="edge">
<title>_includes_app&#45;&gt;_includes_config</title><style>.edge>path:hover{stroke-width:8}</style>
<path fill="none" stroke="black" d="M556.62,-666.34C549.77,-658.22 541.36,-648.24 533.67,-639.12"/>
<polygon fill="#f31616" stroke="black" points="536.4,-636.93 527.28,-631.54 531.05,-641.44 536.4,-636.93"/>
</g>
<!-- _includes_dispatcher -->
<g id="node20" class="node">
<title>_includes_dispatcher</title><style>.edge>path:hover{stroke-width:8}</style>
<ellipse fill="#a83838" stroke="black" cx="536.6" cy="-175.88" rx="43.13" ry="22.63"/>
<text xml:space="preserve" text-anchor="middle" x="536.6" y="-178.38" font-family="Helvetica,sans-Serif" font-size="10.00" fill="#ffffff">_includes.</text>
<text xml:space="preserve" text-anchor="middle" x="536.6" y="-166.38" font-family="Helvetica,sans-Serif" font-size="10.00" fill="#ffffff">dispatcher</text>
</g>
<!-- _includes_app&#45;&gt;_includes_dispatcher -->
<g id="edge2" class="edge">
<title>_includes_app&#45;&gt;_includes_dispatcher</title><style>.edge>path:hover{stroke-width:8}</style>
<path fill="none" stroke="black" d="M568.45,-665.54C564.79,-636.01 557.13,-574.2 550.6,-521.93 544.41,-472.33 527.43,-459.47 536.6,-410.33"/>
</g>
<!-- _includes_app_Chat -->
<g id="node3" class="node">
<title>_includes_app_Chat</title><style>.edge>path:hover{stroke-width:8}</style>
<ellipse fill="#a13535" stroke="black" cx="248.6" cy="-302.62" rx="42.6" ry="31.11"/>
<text xml:space="preserve" text-anchor="middle" x="248.6" y="-311.12" font-family="Helvetica,sans-Serif" font-size="10.00" fill="#ffffff">_includes.</text>
<text xml:space="preserve" text-anchor="middle" x="248.6" y="-299.12" font-family="Helvetica,sans-Serif" font-size="10.00" fill="#ffffff">app.</text>
<text xml:space="preserve" text-anchor="middle" x="248.6" y="-287.12" font-family="Helvetica,sans-Serif" font-size="10.00" fill="#ffffff">Chat</text>
</g>
<!-- _includes_app_Chat&#45;&gt;_includes_dispatcher -->
<g id="edge3" class="edge">
<title>_includes_app_Chat&#45;&gt;_includes_dispatcher</title><style>.edge>path:hover{stroke-width:8}</style>
<path fill="none" stroke="black" d="M536.6,-234.51C541.18,-227.31 542.7,-218.52 542.71,-209.99"/>
<polygon fill="#a13535" stroke="black" points="546.21,-209.93 542.02,-200.2 539.23,-210.43 546.21,-209.93"/>
<path fill="none" stroke="black" d="M291.24,-298.89C364.87,-293.1 510.51,-276.59 536.6,-235.51"/>
</g>
<!-- _includes_app_Chat_Changer -->
<g id="node4" class="node">
<title>_includes_app_Chat_Changer</title><style>.edge>path:hover{stroke-width:8}</style>
<ellipse fill="#b83d3d" stroke="black" cx="351.6" cy="-409.33" rx="42.6" ry="39.6"/>
<text xml:space="preserve" text-anchor="middle" x="351.6" y="-423.83" font-family="Helvetica,sans-Serif" font-size="10.00" fill="#ffffff">_includes.</text>
<text xml:space="preserve" text-anchor="middle" x="351.6" y="-411.83" font-family="Helvetica,sans-Serif" font-size="10.00" fill="#ffffff">app.</text>
<text xml:space="preserve" text-anchor="middle" x="351.6" y="-399.83" font-family="Helvetica,sans-Serif" font-size="10.00" fill="#ffffff">Chat.</text>
<text xml:space="preserve" text-anchor="middle" x="351.6" y="-387.83" font-family="Helvetica,sans-Serif" font-size="10.00" fill="#ffffff">Changer</text>
</g>
<!-- _includes_app_Chat_Changer&#45;&gt;_includes_app_Chat -->
<g id="edge4" class="edge">
<title>_includes_app_Chat_Changer&#45;&gt;_includes_app_Chat</title><style>.edge>path:hover{stroke-width:8}</style>
<path fill="none" stroke="black" d="M323.19,-379.44C310.04,-366.08 294.38,-350.15 280.8,-336.35"/>
<polygon fill="#b83d3d" stroke="black" points="283.65,-334.26 274.14,-329.59 278.66,-339.17 283.65,-334.26"/>
</g>
<!-- _includes_app_Chat_Chatter -->
<g id="node5" class="node">
<title>_includes_app_Chat_Chatter</title><style>.edge>path:hover{stroke-width:8}</style>
<ellipse fill="#c24747" stroke="black" cx="42.6" cy="-409.33" rx="42.6" ry="39.6"/>
<text xml:space="preserve" text-anchor="middle" x="42.6" y="-423.83" font-family="Helvetica,sans-Serif" font-size="10.00" fill="#ffffff">_includes.</text>
<text xml:space="preserve" text-anchor="middle" x="42.6" y="-411.83" font-family="Helvetica,sans-Serif" font-size="10.00" fill="#ffffff">app.</text>
<text xml:space="preserve" text-anchor="middle" x="42.6" y="-399.83" font-family="Helvetica,sans-Serif" font-size="10.00" fill="#ffffff">Chat.</text>
<text xml:space="preserve" text-anchor="middle" x="42.6" y="-387.83" font-family="Helvetica,sans-Serif" font-size="10.00" fill="#ffffff">Chatter</text>
</g>
<!-- _includes_app_Chat_Chatter&#45;&gt;_includes_app_Chat -->
<g id="edge5" class="edge">
<title>_includes_app_Chat_Chatter&#45;&gt;_includes_app_Chat</title><style>.edge>path:hover{stroke-width:8}</style>
<path fill="none" stroke="black" d="M74.43,-382.39C80.61,-377.89 87.17,-373.47 93.6,-369.74 127.56,-350.04 168.5,-332.83 199.78,-320.91"/>
<polygon fill="#c24747" stroke="black" points="200.86,-324.24 209,-317.45 198.4,-317.69 200.86,-324.24"/>
</g>
<!-- _includes_app_Chat_Generator -->
<g id="node6" class="node">
<title>_includes_app_Chat_Generator</title><style>.edge>path:hover{stroke-width:8}</style>
<ellipse fill="#c24747" stroke="black" cx="145.6" cy="-409.33" rx="42.6" ry="39.6"/>
<text xml:space="preserve" text-anchor="middle" x="145.6" y="-423.83" font-family="Helvetica,sans-Serif" font-size="10.00" fill="#ffffff">_includes.</text>
<text xml:space="preserve" text-anchor="middle" x="145.6" y="-411.83" font-family="Helvetica,sans-Serif" font-size="10.00" fill="#ffffff">app.</text>
<text xml:space="preserve" text-anchor="middle" x="145.6" y="-399.83" font-family="Helvetica,sans-Serif" font-size="10.00" fill="#ffffff">Chat.</text>
<text xml:space="preserve" text-anchor="middle" x="145.6" y="-387.83" font-family="Helvetica,sans-Serif" font-size="10.00" fill="#ffffff">Generator</text>
</g>
<!-- _includes_app_Chat_Generator&#45;&gt;_includes_app_Chat -->
<g id="edge6" class="edge">
<title>_includes_app_Chat_Generator&#45;&gt;_includes_app_Chat</title><style>.edge>path:hover{stroke-width:8}</style>
<path fill="none" stroke="black" d="M174.02,-379.44C187.16,-366.08 202.83,-350.15 216.41,-336.35"/>
<polygon fill="#c24747" stroke="black" points="218.55,-339.17 223.06,-329.59 213.56,-334.26 218.55,-339.17"/>
</g>
<!-- _includes_app_Chat_Helpers -->
<g id="node7" class="node">
<title>_includes_app_Chat_Helpers</title><style>.edge>path:hover{stroke-width:8}</style>
<ellipse fill="#c24747" stroke="black" cx="248.6" cy="-409.33" rx="42.6" ry="39.6"/>
<text xml:space="preserve" text-anchor="middle" x="248.6" y="-423.83" font-family="Helvetica,sans-Serif" font-size="10.00" fill="#ffffff">_includes.</text>
<text xml:space="preserve" text-anchor="middle" x="248.6" y="-411.83" font-family="Helvetica,sans-Serif" font-size="10.00" fill="#ffffff">app.</text>
<text xml:space="preserve" text-anchor="middle" x="248.6" y="-399.83" font-family="Helvetica,sans-Serif" font-size="10.00" fill="#ffffff">Chat.</text>
<text xml:space="preserve" text-anchor="middle" x="248.6" y="-387.83" font-family="Helvetica,sans-Serif" font-size="10.00" fill="#ffffff">Helpers</text>
</g>
<!-- _includes_app_Chat_Helpers&#45;&gt;_includes_app_Chat -->
<g id="edge7" class="edge">
<title>_includes_app_Chat_Helpers&#45;&gt;_includes_app_Chat</title><style>.edge>path:hover{stroke-width:8}</style>
<path fill="none" stroke="black" d="M248.6,-369.34C248.6,-361.53 248.6,-353.29 248.6,-345.39"/>
<polygon fill="#c24747" stroke="black" points="252.1,-345.65 248.6,-335.65 245.1,-345.65 252.1,-345.65"/>
</g>
<!-- _includes_app_Chat_Summarizer -->
<g id="node8" class="node">
<title>_includes_app_Chat_Summarizer</title><style>.edge>path:hover{stroke-width:8}</style>
<ellipse fill="#b83d3d" stroke="black" cx="460.6" cy="-409.33" rx="48.44" ry="39.6"/>
<text xml:space="preserve" text-anchor="middle" x="460.6" y="-423.83" font-family="Helvetica,sans-Serif" font-size="10.00" fill="#ffffff">_includes.</text>
<text xml:space="preserve" text-anchor="middle" x="460.6" y="-411.83" font-family="Helvetica,sans-Serif" font-size="10.00" fill="#ffffff">app.</text>
<text xml:space="preserve" text-anchor="middle" x="460.6" y="-399.83" font-family="Helvetica,sans-Serif" font-size="10.00" fill="#ffffff">Chat.</text>
<text xml:space="preserve" text-anchor="middle" x="460.6" y="-387.83" font-family="Helvetica,sans-Serif" font-size="10.00" fill="#ffffff">Summarizer</text>
</g>
<!-- _includes_app_Chat_Summarizer&#45;&gt;_includes_app_Chat -->
<g id="edge8" class="edge">
<title>_includes_app_Chat_Summarizer&#45;&gt;_includes_app_Chat</title><style>.edge>path:hover{stroke-width:8}</style>
<path fill="none" stroke="black" d="M424.46,-382.35C417.67,-377.91 410.53,-373.51 403.6,-369.74 369.14,-350.94 328.22,-333.69 297.08,-321.52"/>
<polygon fill="#b83d3d" stroke="black" points="298.5,-318.32 287.91,-317.98 295.98,-324.85 298.5,-318.32"/>
</g>
<!-- _includes_app_ConfigManager -->
<g id="node9" class="node">
<title>_includes_app_ConfigManager</title><style>.edge>path:hover{stroke-width:8}</style>
<polygon fill="blue" stroke="black" points="625.6,-781.93 543.6,-781.93 543.6,-737.93 625.6,-737.93 625.6,-781.93"/>
<text xml:space="preserve" text-anchor="middle" x="584.6" y="-768.43" font-family="Helvetica,sans-Serif" font-size="10.00" fill="white">_includes.</text>
<text xml:space="preserve" text-anchor="middle" x="584.6" y="-756.43" font-family="Helvetica,sans-Serif" font-size="10.00" fill="white">app.</text>
<text xml:space="preserve" text-anchor="middle" x="584.6" y="-744.43" font-family="Helvetica,sans-Serif" font-size="10.00" fill="white">ConfigManager</text>
</g>
<!-- _includes_app_ConfigManager&#45;&gt;_includes_config -->
<g id="edge9" class="edge">
<title>_includes_app_ConfigManager&#45;&gt;_includes_config</title><style>.edge>path:hover{stroke-width:8}</style>
<path fill="none" stroke="black" d="M543.16,-740.56C522.32,-728.37 500.63,-709.96 496.6,-684.93"/>
</g>
<!-- _includes_app_ConfigManager&#45;&gt;_includes_dispatcher -->
<g id="edge10" class="edge">
<title>_includes_app_ConfigManager&#45;&gt;_includes_dispatcher</title><style>.edge>path:hover{stroke-width:8}</style>
<path fill="none" stroke="black" d="M603.2,-737.47C611.15,-727.3 619.91,-714.61 625.6,-701.93 642.22,-664.95 645.6,-653.47 645.6,-612.93 645.6,-612.93 645.6,-612.93 645.6,-301.62 645.6,-257.32 606.13,-221.16 574.69,-199.39"/>
<polygon fill="blue" stroke="black" points="576.77,-196.57 566.5,-193.94 572.89,-202.4 576.77,-196.57"/>
</g>
<!-- _includes_app_ConfigManager_chat_config -->
<g id="node10" class="node">
<title>_includes_app_ConfigManager_chat_config</title><style>.edge>path:hover{stroke-width:8}</style>
<polygon fill="blue" stroke="black" points="748.1,-885.53 663.1,-885.53 663.1,-829.53 748.1,-829.53 748.1,-885.53"/>
<text xml:space="preserve" text-anchor="middle" x="705.6" y="-872.03" font-family="Helvetica,sans-Serif" font-size="10.00" fill="white">_includes.</text>
<text xml:space="preserve" text-anchor="middle" x="705.6" y="-860.03" font-family="Helvetica,sans-Serif" font-size="10.00" fill="white">app.</text>
<text xml:space="preserve" text-anchor="middle" x="705.6" y="-848.03" font-family="Helvetica,sans-Serif" font-size="10.00" fill="white">ConfigManager.</text>
<text xml:space="preserve" text-anchor="middle" x="705.6" y="-836.03" font-family="Helvetica,sans-Serif" font-size="10.00" fill="white">chat_config</text>
</g>
<!-- _includes_app_ConfigManager_chat_config&#45;&gt;_includes_app_ConfigManager -->
<g id="edge11" class="edge">
<title>_includes_app_ConfigManager_chat_config&#45;&gt;_includes_app_ConfigManager</title><style>.edge>path:hover{stroke-width:8}</style>
<path fill="none" stroke="black" d="M670.93,-829.13C655.17,-816.68 636.53,-801.95 620.61,-789.38"/>
<polygon fill="blue" stroke="black" points="622.8,-786.65 612.78,-783.19 618.46,-792.14 622.8,-786.65"/>
</g>
<!-- _includes_app_ConfigManager_commons -->
<g id="node11" class="node">
<title>_includes_app_ConfigManager_commons</title><style>.edge>path:hover{stroke-width:8}</style>
<polygon fill="blue" stroke="black" points="790.1,-1000.72 705.1,-1000.72 705.1,-944.72 790.1,-944.72 790.1,-1000.72"/>
<text xml:space="preserve" text-anchor="middle" x="747.6" y="-987.22" font-family="Helvetica,sans-Serif" font-size="10.00" fill="white">_includes.</text>
<text xml:space="preserve" text-anchor="middle" x="747.6" y="-975.22" font-family="Helvetica,sans-Serif" font-size="10.00" fill="white">app.</text>
<text xml:space="preserve" text-anchor="middle" x="747.6" y="-963.22" font-family="Helvetica,sans-Serif" font-size="10.00" fill="white">ConfigManager.</text>
<text xml:space="preserve" text-anchor="middle" x="747.6" y="-951.22" font-family="Helvetica,sans-Serif" font-size="10.00" fill="white">commons</text>
</g>
<!-- _includes_app_ConfigManager_commons&#45;&gt;_includes_app_ConfigManager -->
<g id="edge12" class="edge">
<title>_includes_app_ConfigManager_commons&#45;&gt;_includes_app_ConfigManager</title><style>.edge>path:hover{stroke-width:8}</style>
<path fill="none" stroke="black" d="M759.05,-944.38C770.95,-911.17 784.42,-855 757.6,-817.93 730.38,-780.31 677.47,-767.09 637.29,-762.66"/>
<polygon fill="blue" stroke="black" points="637.85,-759.2 627.57,-761.75 637.2,-766.17 637.85,-759.2"/>
</g>
<!-- _includes_app_ConfigManager_commons&#45;&gt;_includes_app_ConfigManager_chat_config -->
<g id="edge13" class="edge">
<title>_includes_app_ConfigManager_commons&#45;&gt;_includes_app_ConfigManager_chat_config</title><style>.edge>path:hover{stroke-width:8}</style>
<path fill="none" stroke="black" d="M737.44,-944.32C732.07,-929.86 725.41,-911.9 719.56,-896.16"/>
<polygon fill="blue" stroke="black" points="722.96,-895.26 716.2,-887.1 716.4,-897.69 722.96,-895.26"/>
</g>
<!-- _includes_app_ConfigManager_story_config -->
<g id="node14" class="node">
<title>_includes_app_ConfigManager_story_config</title><style>.edge>path:hover{stroke-width:8}</style>
<polygon fill="blue" stroke="black" points="890.1,-885.53 805.1,-885.53 805.1,-829.53 890.1,-829.53 890.1,-885.53"/>
<text xml:space="preserve" text-anchor="middle" x="847.6" y="-872.03" font-family="Helvetica,sans-Serif" font-size="10.00" fill="white">_includes.</text>
<text xml:space="preserve" text-anchor="middle" x="847.6" y="-860.03" font-family="Helvetica,sans-Serif" font-size="10.00" fill="white">app.</text>
<text xml:space="preserve" text-anchor="middle" x="847.6" y="-848.03" font-family="Helvetica,sans-Serif" font-size="10.00" fill="white">ConfigManager.</text>
<text xml:space="preserve" text-anchor="middle" x="847.6" y="-836.03" font-family="Helvetica,sans-Serif" font-size="10.00" fill="white">story_config</text>
</g>
<!-- _includes_app_ConfigManager_commons&#45;&gt;_includes_app_ConfigManager_story_config -->
<g id="edge14" class="edge">
<title>_includes_app_ConfigManager_commons&#45;&gt;_includes_app_ConfigManager_story_config</title><style>.edge>path:hover{stroke-width:8}</style>
<path fill="none" stroke="black" d="M771.81,-944.32C785.2,-929.17 801.99,-910.17 816.36,-893.9"/>
<polygon fill="blue" stroke="black" points="818.62,-896.62 822.62,-886.81 813.37,-891.99 818.62,-896.62"/>
</g>
<!-- _includes_app_ConfigManager_ConfigDataClass -->
<g id="node12" class="node">
<title>_includes_app_ConfigManager_ConfigDataClass</title><style>.edge>path:hover{stroke-width:8}</style>
<ellipse fill="#db2f2f" stroke="black" cx="584.6" cy="-972.72" rx="64.35" ry="39.6"/>
<text xml:space="preserve" text-anchor="middle" x="584.6" y="-987.22" font-family="Helvetica,sans-Serif" font-size="10.00" fill="#ffffff">_includes.</text>
<text xml:space="preserve" text-anchor="middle" x="584.6" y="-975.22" font-family="Helvetica,sans-Serif" font-size="10.00" fill="#ffffff">app.</text>
<text xml:space="preserve" text-anchor="middle" x="584.6" y="-963.22" font-family="Helvetica,sans-Serif" font-size="10.00" fill="#ffffff">ConfigManager.</text>
<text xml:space="preserve" text-anchor="middle" x="584.6" y="-951.22" font-family="Helvetica,sans-Serif" font-size="10.00" fill="#ffffff">ConfigDataClass</text>
</g>
<!-- _includes_app_ConfigManager_ConfigDataClass&#45;&gt;_includes_app_ConfigManager -->
<g id="edge15" class="edge">
<title>_includes_app_ConfigManager_ConfigDataClass&#45;&gt;_includes_app_ConfigManager</title><style>.edge>path:hover{stroke-width:8}</style>
<path fill="none" stroke="black" d="M496.6,-856.53C493.41,-828.76 513.93,-805.47 535.95,-788.83"/>
<polygon fill="#db2f2f" stroke="black" points="537.73,-791.87 543.85,-783.22 533.67,-786.16 537.73,-791.87"/>
</g>
<!-- _includes_app_ConfigManager_override_config -->
<g id="node13" class="node">
<title>_includes_app_ConfigManager_override_config</title><style>.edge>path:hover{stroke-width:8}</style>
<ellipse fill="#c04040" stroke="black" cx="584.6" cy="-857.53" rx="60.1" ry="39.6"/>
<text xml:space="preserve" text-anchor="middle" x="584.6" y="-872.03" font-family="Helvetica,sans-Serif" font-size="10.00" fill="#ffffff">_includes.</text>
<text xml:space="preserve" text-anchor="middle" x="584.6" y="-860.03" font-family="Helvetica,sans-Serif" font-size="10.00" fill="#ffffff">app.</text>
<text xml:space="preserve" text-anchor="middle" x="584.6" y="-848.03" font-family="Helvetica,sans-Serif" font-size="10.00" fill="#ffffff">ConfigManager.</text>
<text xml:space="preserve" text-anchor="middle" x="584.6" y="-836.03" font-family="Helvetica,sans-Serif" font-size="10.00" fill="#ffffff">override_config</text>
</g>
<!-- _includes_app_ConfigManager_ConfigDataClass&#45;&gt;_includes_app_ConfigManager_override_config -->
<g id="edge16" class="edge">
<title>_includes_app_ConfigManager_ConfigDataClass&#45;&gt;_includes_app_ConfigManager_override_config</title><style>.edge>path:hover{stroke-width:8}</style>
<path fill="none" stroke="black" d="M584.6,-932.77C584.6,-925.12 584.6,-917 584.6,-909.03"/>
<polygon fill="#db2f2f" stroke="black" points="588.1,-909.07 584.6,-899.07 581.1,-909.07 588.1,-909.07"/>
</g>
<!-- _includes_app_ConfigManager_ConfigDataClass&#45;&gt;_includes_config -->
<g id="edge17" class="edge">
<title>_includes_app_ConfigManager_ConfigDataClass&#45;&gt;_includes_config</title><style>.edge>path:hover{stroke-width:8}</style>
<path fill="none" stroke="black" d="M545.8,-941.22C523.99,-920.69 500.38,-891.42 496.6,-858.53"/>
<path fill="none" stroke="black" d="M496.6,-856.53C491.75,-814.32 492.52,-803.22 496.6,-760.93"/>
</g>
<!-- _includes_app_ConfigManager_override_config&#45;&gt;_includes_app_ConfigManager -->
<g id="edge18" class="edge">
<title>_includes_app_ConfigManager_override_config&#45;&gt;_includes_app_ConfigManager</title><style>.edge>path:hover{stroke-width:8}</style>
<path fill="none" stroke="black" d="M584.6,-817.65C584.6,-809.71 584.6,-801.43 584.6,-793.73"/>
<polygon fill="#c04040" stroke="black" points="588.1,-793.75 584.6,-783.75 581.1,-793.75 588.1,-793.75"/>
</g>
<!-- _includes_app_ConfigManager_story_config&#45;&gt;_includes_app_ConfigManager -->
<g id="edge19" class="edge">
<title>_includes_app_ConfigManager_story_config&#45;&gt;_includes_app_ConfigManager</title><style>.edge>path:hover{stroke-width:8}</style>
<path fill="none" stroke="black" d="M810.92,-829.18C804.36,-825.03 797.44,-821.09 790.6,-817.93 740.76,-794.92 679.73,-779.47 637.09,-770.52"/>
<polygon fill="blue" stroke="black" points="637.83,-767.1 627.33,-768.53 636.43,-773.96 637.83,-767.1"/>
</g>
<!-- _includes_app_Utility -->
<g id="node15" class="node">
<title>_includes_app_Utility</title><style>.edge>path:hover{stroke-width:8}</style>
<ellipse fill="#d31717" stroke="black" cx="636.6" cy="-1116.44" rx="42.6" ry="31.11"/>
<text xml:space="preserve" text-anchor="middle" x="636.6" y="-1124.94" font-family="Helvetica,sans-Serif" font-size="10.00" fill="#ffffff">_includes.</text>
<text xml:space="preserve" text-anchor="middle" x="636.6" y="-1112.94" font-family="Helvetica,sans-Serif" font-size="10.00" fill="#ffffff">app.</text>
<text xml:space="preserve" text-anchor="middle" x="636.6" y="-1100.94" font-family="Helvetica,sans-Serif" font-size="10.00" fill="#ffffff">Utility</text>
</g>
<!-- _includes_app_Utility&#45;&gt;_includes_app_ConfigManager_chat_config -->
<g id="edge20" class="edge">
<title>_includes_app_Utility&#45;&gt;_includes_app_ConfigManager_chat_config</title><style>.edge>path:hover{stroke-width:8}</style>
<path fill="none" stroke="black" d="M676.6,-1048.32C681.18,-1034.24 693.37,-948.3 700.41,-897.02"/>
<polygon fill="#d31717" stroke="black" points="703.86,-897.59 701.74,-887.21 696.92,-896.65 703.86,-897.59"/>
</g>
<!-- _includes_app_Utility&#45;&gt;_includes_app_ConfigManager_commons -->
<g id="edge21" class="edge">
<title>_includes_app_Utility&#45;&gt;_includes_app_ConfigManager_commons</title><style>.edge>path:hover{stroke-width:8}</style>
<path fill="none" stroke="black" d="M676.6,-1048.32C681.46,-1033.41 691.32,-1019.96 702.19,-1008.72"/>
<polygon fill="#d31717" stroke="black" points="704.39,-1011.46 709.14,-1001.99 699.52,-1006.43 704.39,-1011.46"/>
</g>
<!-- _includes_app_Utility&#45;&gt;_includes_app_ConfigManager_story_config -->
<g id="edge22" class="edge">
<title>_includes_app_Utility&#45;&gt;_includes_app_ConfigManager_story_config</title><style>.edge>path:hover{stroke-width:8}</style>
<path fill="none" stroke="black" d="M676.6,-1048.32C695.37,-994.54 758.97,-1052.24 799.6,-1012.32 830.62,-981.86 841.66,-931.69 845.56,-896.98"/>
<polygon fill="#d31717" stroke="black" points="849.01,-897.65 846.48,-887.36 842.04,-896.98 849.01,-897.65"/>
</g>
<!-- _includes_app_Utility&#45;&gt;_includes_config -->
<g id="edge23" class="edge">
<title>_includes_app_Utility&#45;&gt;_includes_config</title><style>.edge>path:hover{stroke-width:8}</style>
<path fill="none" stroke="black" d="M656.45,-1088.41C663.95,-1076.9 671.82,-1063 676.6,-1049.32"/>
<path fill="none" stroke="black" d="M676.6,-1048.32C701.39,-977.48 570.71,-1058.58 511.6,-1012.32 496.55,-1000.54 503.14,-989.68 492.6,-973.72"/>
</g>
<!-- _includes_app_Utility_other_utils -->
<g id="node16" class="node">
<title>_includes_app_Utility_other_utils</title><style>.edge>path:hover{stroke-width:8}</style>
<ellipse fill="#c24747" stroke="black" cx="636.6" cy="-1223.15" rx="43.13" ry="39.6"/>
<text xml:space="preserve" text-anchor="middle" x="636.6" y="-1237.65" font-family="Helvetica,sans-Serif" font-size="10.00" fill="#ffffff">_includes.</text>
<text xml:space="preserve" text-anchor="middle" x="636.6" y="-1225.65" font-family="Helvetica,sans-Serif" font-size="10.00" fill="#ffffff">app.</text>
<text xml:space="preserve" text-anchor="middle" x="636.6" y="-1213.65" font-family="Helvetica,sans-Serif" font-size="10.00" fill="#ffffff">Utility.</text>
<text xml:space="preserve" text-anchor="middle" x="636.6" y="-1201.65" font-family="Helvetica,sans-Serif" font-size="10.00" fill="#ffffff">other_utils</text>
</g>
<!-- _includes_app_Utility_other_utils&#45;&gt;_includes_app_Utility -->
<g id="edge24" class="edge">
<title>_includes_app_Utility_other_utils&#45;&gt;_includes_app_Utility</title><style>.edge>path:hover{stroke-width:8}</style>
<path fill="none" stroke="black" d="M636.6,-1183.16C636.6,-1175.34 636.6,-1167.1 636.6,-1159.2"/>
<polygon fill="#c24747" stroke="black" points="640.1,-1159.46 636.6,-1149.46 633.1,-1159.46 640.1,-1159.46"/>
</g>
<!-- _includes_app_Utility_readers -->
<g id="node17" class="node">
<title>_includes_app_Utility_readers</title><style>.edge>path:hover{stroke-width:8}</style>
<ellipse fill="#cc3333" stroke="black" cx="532.6" cy="-1223.15" rx="42.6" ry="39.6"/>
<text xml:space="preserve" text-anchor="middle" x="532.6" y="-1237.65" font-family="Helvetica,sans-Serif" font-size="10.00" fill="#ffffff">_includes.</text>
<text xml:space="preserve" text-anchor="middle" x="532.6" y="-1225.65" font-family="Helvetica,sans-Serif" font-size="10.00" fill="#ffffff">app.</text>
<text xml:space="preserve" text-anchor="middle" x="532.6" y="-1213.65" font-family="Helvetica,sans-Serif" font-size="10.00" fill="#ffffff">Utility.</text>
<text xml:space="preserve" text-anchor="middle" x="532.6" y="-1201.65" font-family="Helvetica,sans-Serif" font-size="10.00" fill="#ffffff">readers</text>
</g>
<!-- _includes_app_Utility_readers&#45;&gt;_includes_app_Utility -->
<g id="edge25" class="edge">
<title>_includes_app_Utility_readers&#45;&gt;_includes_app_Utility</title><style>.edge>path:hover{stroke-width:8}</style>
<path fill="none" stroke="black" d="M561.3,-1193.26C574.57,-1179.9 590.39,-1163.97 604.09,-1150.17"/>
<polygon fill="#cc3333" stroke="black" points="606.26,-1152.96 610.82,-1143.4 601.29,-1148.02 606.26,-1152.96"/>
</g>
<!-- _includes_app_Utility_readers&#45;&gt;_includes_config -->
<g id="edge26" class="edge">
<title>_includes_app_Utility_readers&#45;&gt;_includes_config</title><style>.edge>path:hover{stroke-width:8}</style>
<path fill="none" stroke="black" d="M496.6,-682.93C494.38,-669.12 497.01,-653.92 500.66,-641.23"/>
<polygon fill="#cc3333" stroke="black" points="503.95,-642.42 503.71,-631.82 497.29,-640.25 503.95,-642.42"/>
<path fill="none" stroke="black" d="M530.22,-1183.2C525.84,-1122.17 514.86,-1007.45 492.6,-973.72"/>
<path fill="none" stroke="black" d="M492.6,-971.72C453.29,-915.63 474.37,-885.93 482.6,-817.93 485.74,-792.03 494.1,-786.9 496.6,-760.93"/>
<path fill="none" stroke="black" d="M496.6,-758.93C498.31,-726.09 501.83,-717.4 496.6,-684.93"/>
</g>
<!-- _includes_app_Utility_writers -->
<g id="node18" class="node">
<title>_includes_app_Utility_writers</title><style>.edge>path:hover{stroke-width:8}</style>
<ellipse fill="#c04040" stroke="black" cx="740.6" cy="-1223.15" rx="42.6" ry="39.6"/>
<text xml:space="preserve" text-anchor="middle" x="740.6" y="-1237.65" font-family="Helvetica,sans-Serif" font-size="10.00" fill="#ffffff">_includes.</text>
<text xml:space="preserve" text-anchor="middle" x="740.6" y="-1225.65" font-family="Helvetica,sans-Serif" font-size="10.00" fill="#ffffff">app.</text>
<text xml:space="preserve" text-anchor="middle" x="740.6" y="-1213.65" font-family="Helvetica,sans-Serif" font-size="10.00" fill="#ffffff">Utility.</text>
<text xml:space="preserve" text-anchor="middle" x="740.6" y="-1201.65" font-family="Helvetica,sans-Serif" font-size="10.00" fill="#ffffff">writers</text>
</g>
<!-- _includes_app_Utility_writers&#45;&gt;_includes_app_Utility -->
<g id="edge27" class="edge">
<title>_includes_app_Utility_writers&#45;&gt;_includes_app_Utility</title><style>.edge>path:hover{stroke-width:8}</style>
<path fill="none" stroke="black" d="M711.91,-1193.26C698.64,-1179.9 682.82,-1163.97 669.11,-1150.17"/>
<polygon fill="#c04040" stroke="black" points="671.92,-1148.02 662.39,-1143.4 666.95,-1152.96 671.92,-1148.02"/>
</g>
<!-- _includes_config&#45;&gt;_includes -->
<g id="edge28" class="edge">
<title>_includes_config&#45;&gt;_includes</title><style>.edge>path:hover{stroke-width:8}</style>
<path fill="none" stroke="black" d="M511.85,-593.63C511.95,-586.34 512.08,-577.66 512.2,-569.47"/>
<polygon fill="blue" stroke="black" points="515.69,-569.6 512.34,-559.55 508.69,-569.5 515.69,-569.6"/>
</g>
<!-- _includes_config&#45;&gt;_includes_app_Chat_Changer -->
<g id="edge29" class="edge">
<title>_includes_config&#45;&gt;_includes_app_Chat_Changer</title><style>.edge>path:hover{stroke-width:8}</style>
<path fill="none" stroke="black" d="M460.6,-484.93C459.82,-454.98 428.32,-465.87 403.6,-448.93 400.25,-446.63 396.81,-444.22 393.38,-441.76"/>
<polygon fill="blue" stroke="black" points="395.72,-439.14 385.57,-436.1 391.61,-444.8 395.72,-439.14"/>
<path fill="none" stroke="black" d="M496.94,-593.88C489.17,-583.99 480.12,-570.95 474.6,-557.93 461.89,-527.91 461.45,-518.52 460.6,-485.93"/>
</g>
<!-- _includes_config&#45;&gt;_includes_app_Chat_Summarizer -->
<g id="edge30" class="edge">
<title>_includes_config&#45;&gt;_includes_app_Chat_Summarizer</title><style>.edge>path:hover{stroke-width:8}</style>
<path fill="none" stroke="black" d="M460.6,-484.93C460.4,-477.01 460.29,-468.62 460.24,-460.43"/>
<polygon fill="blue" stroke="black" points="463.75,-460.56 460.22,-450.57 456.75,-460.58 463.75,-460.56"/>
</g>
<!-- _includes_config&#45;&gt;_includes_dispatcher -->
<g id="edge31" class="edge">
<title>_includes_config&#45;&gt;_includes_dispatcher</title><style>.edge>path:hover{stroke-width:8}</style>
<path fill="none" stroke="black" d="M536.6,-408.33C554.23,-333.57 495.42,-300.35 536.6,-235.51"/>
<path fill="none" stroke="black" d="M460.6,-484.93C456.21,-455.29 497.57,-471.21 517.6,-448.93 530.39,-434.71 533.09,-429.13 536.6,-410.33"/>
</g>
<!-- _includes_listener -->
<g id="node21" class="node">
<title>_includes_listener</title><style>.edge>path:hover{stroke-width:8}</style>
<ellipse fill="#b03a3a" stroke="black" cx="571.6" cy="-94.63" rx="42.6" ry="22.63"/>
<text xml:space="preserve" text-anchor="middle" x="571.6" y="-97.13" font-family="Helvetica,sans-Serif" font-size="10.00" fill="#ffffff">_includes.</text>
<text xml:space="preserve" text-anchor="middle" x="571.6" y="-85.13" font-family="Helvetica,sans-Serif" font-size="10.00" fill="#ffffff">listener</text>
</g>
<!-- _includes_config&#45;&gt;_includes_listener -->
<g id="edge32" class="edge">
<title>_includes_config&#45;&gt;_includes_listener</title><style>.edge>path:hover{stroke-width:8}</style>
<path fill="none" stroke="black" d="M537.33,-593.46C565.77,-571.84 607.6,-532.17 607.6,-485.93 607.6,-485.93 607.6,-485.93 607.6,-234.51 607.6,-196.86 595.05,-155.24 584.77,-127.48"/>
<polygon fill="blue" stroke="black" points="588.08,-126.33 581.23,-118.25 581.54,-128.84 588.08,-126.33"/>
</g>
<!-- _includes_dispatcher&#45;&gt;_includes_listener -->
<g id="edge33" class="edge">
<title>_includes_dispatcher&#45;&gt;_includes_listener</title><style>.edge>path:hover{stroke-width:8}</style>
<path fill="none" stroke="black" d="M545.98,-153.64C549.55,-145.56 553.7,-136.16 557.61,-127.32"/>
<polygon fill="#a83838" stroke="black" points="560.75,-128.87 561.59,-118.31 554.34,-126.04 560.75,-128.87"/>
</g>
<!-- _includes_main -->
<g id="node22" class="node">
<title>_includes_main</title><style>.edge>path:hover{stroke-width:8}</style>
<ellipse fill="#b34c4c" stroke="black" cx="571.6" cy="-18" rx="48.86" ry="18"/>
<text xml:space="preserve" text-anchor="middle" x="571.6" y="-14.5" font-family="Helvetica,sans-Serif" font-size="10.00" fill="#ffffff">_includes.main</text>
</g>
<!-- _includes_listener&#45;&gt;_includes_main -->
<g id="edge34" class="edge">
<title>_includes_listener&#45;&gt;_includes_main</title><style>.edge>path:hover{stroke-width:8}</style>
<path fill="none" stroke="black" d="M571.6,-71.64C571.6,-64.1 571.6,-55.56 571.6,-47.57"/>
<polygon fill="#b03a3a" stroke="black" points="575.1,-47.61 571.6,-37.61 568.1,-47.61 575.1,-47.61"/>
</g>
<!-- yaml -->
<g id="node23" class="node">
<title>yaml</title><style>.edge>path:hover{stroke-width:8}</style>
<ellipse fill="#47c2c2" stroke="black" cx="740.6" cy="-1427.74" rx="27" ry="18"/>
<text xml:space="preserve" text-anchor="middle" x="740.6" y="-1424.24" font-family="Helvetica,sans-Serif" font-size="10.00" fill="#000000">yaml</text>
</g>
<!-- yaml&#45;&gt;_includes_app_Utility_readers -->
<g id="edge35" class="edge">
<title>yaml&#45;&gt;_includes_app_Utility_readers</title><style>.edge>path:hover{stroke-width:8}</style>
<path fill="none" stroke="black" d="M745.25,-1409.59C751.18,-1384.08 758.66,-1335.33 740.6,-1299.74"/>
<path fill="none" stroke="black" d="M740.6,-1298.74C700.13,-1240.22 649.2,-1292.58 584.6,-1262.74 580.81,-1260.99 577.02,-1258.93 573.31,-1256.7"/>
<polygon fill="#47c2c2" stroke="black" points="575.3,-1253.81 565.02,-1251.27 571.47,-1259.67 575.3,-1253.81"/>
</g>
<!-- yaml&#45;&gt;_includes_app_Utility_writers -->
<g id="edge36" class="edge">
<title>yaml&#45;&gt;_includes_app_Utility_writers</title><style>.edge>path:hover{stroke-width:8}</style>
<path fill="none" stroke="black" d="M740.6,-1298.74C736.73,-1291.12 734.86,-1282.46 734.21,-1273.81"/>
<polygon fill="#47c2c2" stroke="black" points="737.71,-1273.98 734.03,-1264.04 730.72,-1274.11 737.71,-1273.98"/>
</g>
</g>
</svg>
